General

Complete name                    : Montevideo-Na putu za Montevideo.avi

Format                           : AVI

Format/Info                      : Audio Video Interleave

File size                        : 449 MiB

Duration                         : 52mn 13s

Overall bit rate                 : 1 201 Kbps

Writing application              : Nandub v1.0rc2

Writing library                  : Nandub build 1853/release



Video

ID                               : 0

Format                           : MPEG-4 Visual

Codec ID                         : XVID

Codec ID/Hint                    : XviD

Duration                         : 52mn 13s

Bit rate                         : 1 061 Kbps

Width                            : 720 pixels

Height                           : 416 pixels

Display aspect ratio             : 16:9

Frame rate                       : 25.000 fps

Color space                      : YUV

Chroma subsampling               : 4:2:0

Compression mode                 : Lossy

Bits/(Pixel*Frame)               : 0.142

Stream size                      : 396 MiB (88%)



Audio

ID                               : 1

Format                           : MPEG Audio

Format version                   : Version 1

Format profile                   : Layer 3

Mode                             : Joint stereo

Codec ID                         : 55

Codec ID/Hint                    : MP3

Duration                         : 52mn 13s

Bit rate mode                    : Constant

Bit rate                         : 128 Kbps

Channel(s)                       : 2 channels

Sampling rate                    : 44.1 KHz

Compression mode                 : Lossy

Stream size                      : 47.8 MiB (11%)

Alignment                        : Aligned on interleaves

Interleave, duration             : 26 ms (0.65 video frame)

Interleave, preload duration     : 496 ms